# xmcd
#
# Track frame offsets:
#	150
#	16579
#	33472
#	50321
#	69130
#	88064
#	104745
#	121198
#	138088
#	154923
#	173706
#	192587
#
# Disc length: 2790 seconds
#
# Revision: 2
# Processed by: cddbd v1.5.1PL2 Copyright (c) Steve Scherf et al.
# Submitted via: audiograbber 1.83.01
#
DISCID=960ae40c
DTITLE=Chartbuster - Cb20299
DYEAR=1900
DGENRE=Country
TTITLE0=McEntire, Reba -  I'm A Survivor (Vocals)
TTITLE1=McCann, Lila -  Because Of You ( Vocals)
TTITLE2=Loveless, Patty and Tritt, Travis -  Out Of Control Raging Fire ( Vocals)
TTITLE3=Walker, Tamara -  Angel Eyes ( Vocals)
TTITLE4=Three Of Hearts -  Arizona Rain ( Vocals)
TTITLE5=Carpenter, Mary Chapin -  This Is Me Leaving You ( Vocals)
TTITLE6=McEntire, Reba  -  I'm A Survivor
TTITLE7=McCann, Lila  -  Because Of You
TTITLE8=Loveless, Patty and Tritt, Travis  -  Out Of Control Raging Fire
TTITLE9=Walker, Tamara  -  Angel Eyes
TTITLE10=Three Of Hearts  -  Arizona Rain
TTITLE11=Carpenter, Mary Chapin  -  This Is Me Leaving You
EXTD=
EXTT0=
EXTT1=
EXTT2=
EXTT3=
EXTT4=
EXTT5=
EXTT6=
EXTT7=
EXTT8=
EXTT9=
EXTT10=
EXTT11=
PLAYORDER=
